<svg xmlns="http://www.w3.org/2000/svg" viewBox="0 0 900 900">
    <g transform="translate(0,900) scale(0.1,-0.1)" fill="currentColor">
        <path
            d="M2580 8606 c-47 -13 -152 -42 -235 -64 -82 -23 -170 -48 -195 -57 -25 -9 -77 -22 -117 -30 -83 -16 -162 -53 -192 -91 -40 -51 -38 -132 8 -307 37 -137 104 -412 117 -482 8 -38 25 -110 38 -160 13 -49 36 -142 50 -205 15 -63 35 -146 45 -185 10 -38 31 -124 46 -190 15 -66 38 -160 51 -210 13 -49 31 -124 39 -165 16 -78 35 -117 62 -127 14 -5 286 80 308 97 6 4 71 28 145 53 132 45 248 87 360 128 30 12 88 30 128 42 96 27 106 44 86 142 -8 39 -21 90 -28 115 -27 87 -59 206 -68 255 -5 28 -16 73 -25 100 -15 47 -38 130 -142 530 -23 88 -53 198 -66 245 -13 47 -38 139 -55 205 -74 288 -98 343 -166 371 -46 19 -95 17 -194 -10z" />
        <path
            d="M6262 8612 c-29 -16 -82 -79 -82 -99 0 -4 -13 -51 -29 -103 -29 -95 -98 -349 -132 -490 -10 -41 -30 -118 -44 -170 -15 -52 -35 -129 -44 -171 -10 -41 -25 -97 -34 -125 -9 -27 -35 -121 -58 -209 -43 -168 -86 -329 -113 -430 -31 -115 -23 -127 120 -174 54 -18 126 -43 159 -56 33 -12 80 -30 105 -38 25 -8 108 -38 185 -65 330 -119 429 -152 446 -152 28 0 48 38 70 136 27 117 55 232 80 324 12 41 27 107 34 145 7 39 25 115 40 170 14 55 39 156 55 225 33 146 100 424 135 560 70 273 77 312 73 381 -3 59 -8 72 -33 100 -38 39 -100 67 -193 85 -40 8 -81 18 -90 23 -10 5 -54 19 -97 31 -99 26 -232 62 -350 95 -105 29 -157 31 -203 7z" />
        <path
            d="M3265 6540 c-27 -12 -97 -37 -155 -56 -58 -20 -118 -42 -135 -50 -16 -7 -82 -31 -145 -53 -394 -137 -500 -178 -532 -209 -52 -48 -57 -80 -62 -422 -3 -223 -9 -344 -20 -414 -9 -54 -19 -102 -22 -107 -3 -5 -13 -50 -23 -101 -57 -287 -201 -617 -364 -836 -119 -161 -379 -437 -502 -533 -27 -22 -75 -60 -105 -84 -30 -25 -95 -73 -143 -108 -228 -160 -237 -170 -257 -259 -8 -38 -6 -80 10 -191 10 -78 22 -168 26 -200 4 -39 14 -68 29 -85 l22 -26 94 12 c52 7 173 21 269 32 96 11 229 26 295 35 66 8 170 19 230 25 61 6 151 17 200 25 78 12 330 35 391 35 56 0 64 -31 104 -395 11 -99 22 -190 25 -202 4 -18 23 -190 52 -468 4 -44 2 -55 -21 -82 -29 -34 -57 -40 -317 -68 -74 -8 -177 -21 -229 -29 -52 -8 -135 -17 -185 -21 -49 -3 -130 -12 -180 -20 -49 -7 -124 -16 -165 -20 -41 -4 -149 -18 -240 -31 -127 -18 -168 -28 -178 -41 -15 -20 -13 -55 18 -233 10 -63 23 -151 28 -195 5 -44 18 -134 30 -200 11 -66 25 -154 32 -196 17 -115 28 -147 68 -191 74 -82 160 -95 367 -58 61 11 151 27 200 34 50 8 137 23 195 34 58 11 164 30 235 42 72 11 166 27 210 35 44 8 123 21 175 30 52 9 156 27 230 40 211 37 372 64 413 70 65 10 71 32 42 155 -14 58 -32 139 -41 180 -8 41 -24 104 -34 140 -10 36 -33 126 -50 200 -17 74 -39 167 -50 205 -11 39 -33 131 -51 205 -17 74 -39 164 -49 200 -10 36 -24 92 -30 125 -15 73 -49 208 -85 335 -30 104 -132 399 -144 415 -4 6 -23 51 -41 100 -18 50 -83 191 -144 314 -126 255 -134 270 -146 291 -5 8 -30 52 -55 98 -26 46 -64 109 -86 142 -21 32 -39 61 -39 64 0 3 -22 38 -48 78 -76 114 -102 163 -102 192 0 16 30 77 70 146 166 280 250 521 315 905 8 44 19 188 26 320 6 132 16 258 23 280 10 37 16 42 81 68 39 15 95 37 125 47 30 10 87 31 125 45 39 15 97 35 130 46 33 11 74 26 90 33 26 12 91 36 235 86 130 45 217 83 232 101 16 19 16 23 -3 72 -59 149 -143 196 -264 147z" />
        <path
            d="M5655 6553 c-40 -10 -83 -53 -118 -121 -21 -39 -37 -77 -37 -85 0 -22 43 -53 98 -72 26 -9 70 -26 97 -37 28 -11 70 -26 95 -33 25 -8 77 -26 115 -41 90 -34 328 -122 539 -198 96 -34 98 -41 107 -273 9 -230 25 -404 44 -477 7 -28 16 -71 20 -96 12 -76 60 -250 99 -355 36 -97 155 -345 180 -375 26 -30 76 -128 76 -147 0 -10 -28 -66 -62 -122 -35 -57 -69 -115 -77 -130 -7 -14 -21 -35 -31 -46 -9 -11 -36 -54 -60 -95 -121 -211 -160 -282 -199 -359 -23 -46 -47 -91 -51 -100 -22 -41 -108 -229 -115 -251 -4 -14 -18 -47 -30 -75 -12 -27 -32 -77 -45 -110 -12 -33 -33 -87 -46 -120 -58 -145 -170 -550 -234 -840 -23 -104 -47 -204 -70 -285 -10 -36 -22 -87 -26 -115 -4 -27 -15 -72 -24 -100 -9 -27 -29 -106 -44 -175 -16 -69 -38 -163 -51 -210 -68 -253 -68 -294 2 -304 70 -11 509 -88 668 -118 61 -12 148 -26 195 -33 132 -19 284 -44 415 -70 66 -13 145 -26 175 -30 30 -4 82 -13 115 -20 33 -8 98 -19 145 -25 186 -26 254 -10 319 71 45 57 58 106 91 334 22 153 73 495 88 590 12 77 3 102 -40 109 -18 2 -64 10 -103 16 -90 14 -350 45 -585 70 -102 11 -230 27 -285 35 -55 8 -147 20 -205 25 -301 31 -321 43 -300 173 5 34 23 188 40 342 16 154 37 345 45 424 22 197 31 238 61 258 22 14 42 14 187 4 89 -7 200 -18 247 -26 47 -8 153 -22 235 -30 83 -8 182 -20 220 -25 39 -5 144 -17 235 -26 91 -8 183 -19 205 -24 22 -5 74 -11 117 -15 74 -7 77 -6 92 18 10 15 24 83 36 173 11 82 25 175 31 207 19 105 -30 199 -140 268 -54 34 -126 86 -261 190 -234 179 -531 492 -668 704 -115 179 -227 422 -266 580 -8 33 -21 85 -29 115 -59 222 -68 297 -76 685 -6 311 -8 332 -28 371 -12 22 -29 46 -38 54 -23 19 -110 54 -249 101 -66 22 -129 45 -140 51 -11 6 -78 30 -148 54 -70 24 -137 48 -150 55 -12 7 -43 18 -68 25 -25 7 -83 27 -130 44 -133 49 -159 54 -205 43z" />
        <path
            d="M3600 6203 c-8 -2 -67 -24 -130 -48 -63 -24 -135 -50 -160 -58 -25 -9 -76 -27 -115 -42 -38 -14 -95 -34 -125 -45 -30 -10 -91 -32 -135 -50 -44 -17 -96 -36 -115 -41 -78 -23 -190 -82 -195 -103 -2 -12 -6 -91 -9 -176 -13 -342 -71 -640 -189 -960 -29 -80 -140 -307 -174 -357 -44 -65 -42 -98 12 -178 26 -39 54 -83 62 -100 9 -16 33 -56 54 -87 22 -32 39 -62 39 -67 0 -4 9 -20 20 -33 10 -14 40 -63 64 -109 65 -120 276 -547 276 -557 0 -5 14 -40 32 -78 30 -66 48 -116 132 -353 53 -151 49 -149 159 -97 40 19 126 58 192 86 66 29 145 63 175 77 48 21 193 73 330 116 52 17 158 45 315 84 107 27 117 28 410 28 276 0 307 -2 385 -22 47 -12 114 -29 150 -38 144 -37 211 -56 333 -99 71 -25 143 -52 160 -61 18 -9 73 -32 122 -52 50 -20 146 -62 214 -94 68 -33 132 -59 142 -59 23 0 39 30 77 150 30 92 86 237 159 410 39 91 212 444 270 550 50 90 197 331 251 410 38 56 43 70 39 103 -3 22 -14 49 -25 60 -37 40 -169 320 -215 457 -82 242 -109 373 -148 720 -4 41 -9 125 -9 185 -1 61 -5 121 -9 135 -7 26 -65 60 -171 99 -30 11 -91 33 -135 49 -44 17 -132 49 -195 72 -63 23 -155 57 -205 75 -90 33 -180 66 -245 91 -19 7 -43 13 -53 14 -10 0 -59 -39 -110 -87 -51 -49 -121 -109 -157 -134 -73 -52 -236 -139 -259 -139 -9 0 -43 -9 -77 -19 -33 -11 -112 -24 -175 -31 -226 -22 -447 19 -624 117 -114 63 -155 94 -277 210 -81 78 -101 89 -138 76z m2378 -3103 c28 -42 28 -59 -1 -101 -20 -29 -29 -34 -69 -37 -40 -3 -49 1 -67 24 -31 39 -35 68 -16 108 30 64 111 67 153 6z m-2769 14 c13 -17 21 -41 21 -66 0 -104 -150 -124 -176 -23 -16 64 24 115 90 115 36 0 48 -5 65 -26z" />
        <path
            d="M4200 2920 c-74 -15 -180 -39 -235 -53 -159 -41 -481 -158 -650 -237 -252 -117 -275 -131 -275 -168 0 -31 38 -207 64 -292 21 -72 92 -357 122 -490 13 -58 37 -159 55 -225 17 -66 37 -149 44 -185 7 -36 30 -132 50 -215 21 -82 42 -168 47 -189 13 -52 56 -92 148 -133 41 -19 88 -41 103 -49 75 -38 319 -104 462 -126 110 -16 643 -17 762 0 262 36 618 163 692 247 21 24 34 59 55 151 15 65 35 146 43 179 19 74 44 177 76 320 14 61 30 122 36 136 5 15 26 98 46 185 20 88 47 197 60 244 12 47 27 108 33 135 5 28 24 106 42 174 17 68 29 133 26 145 -3 12 -20 30 -38 39 -18 10 -60 33 -93 52 -33 18 -66 34 -73 34 -7 1 -54 21 -105 45 -50 23 -110 49 -132 56 -22 7 -56 21 -75 30 -60 30 -360 127 -475 153 -256 59 -315 67 -502 66 -154 -1 -196 -5 -313 -29z m-669 -709 c34 -35 37 -72 10 -117 -35 -58 -122 -53 -155 7 -53 97 67 187 145 110z m2114 4 c47 -46 28 -138 -31 -154 -48 -13 -85 0 -112 39 -59 88 68 191 143 115z m-1994 -715 c24 -13 49 -61 49 -95 0 -40 -50 -85 -95 -85 -82 0 -116 100 -56 161 31 30 67 37 102 19z m1830 0 c24 -13 49 -61 49 -94 0 -13 -12 -38 -26 -55 -20 -25 -34 -31 -64 -31 -31 0 -44 7 -70 36 -26 30 -31 42 -26 68 13 66 83 105 137 76z" />
        <path
            d="M2155 2834 c-44 -7 -127 -18 -185 -24 -187 -18 -552 -60 -655 -75 -55 -8 -170 -21 -255 -30 -192 -19 -196 -20 -216 -49 -14 -22 -14 -36 5 -163 11 -76 25 -190 31 -253 6 -63 17 -162 25 -220 8 -58 17 -136 21 -174 7 -86 36 -122 87 -112 18 4 77 11 132 17 55 5 150 16 210 24 61 8 155 19 210 25 55 5 168 19 250 30 83 11 247 32 365 46 118 14 221 30 228 36 16 14 15 97 -3 222 -8 55 -24 180 -35 276 -44 379 -48 404 -71 423 -24 20 -36 20 -144 1z" />
        <path
            d="M6754 2842 c-6 -4 -16 -16 -22 -27 -11 -21 -41 -236 -62 -435 -6 -58 -20 -179 -31 -269 -18 -145 -18 -166 -5 -186 17 -26 23 -28 266 -55 102 -11 250 -29 330 -40 80 -11 211 -26 291 -34 80 -9 152 -18 160 -20 18 -7 324 -40 367 -40 39 1 59 24 66 79 3 22 17 128 31 235 14 107 30 245 35 305 5 61 15 145 21 187 14 94 8 122 -28 137 -16 6 -113 20 -218 31 -104 11 -201 22 -215 25 -20 4 -479 55 -720 81 -30 3 -93 12 -139 20 -95 16 -111 17 -127 6z" />
    </g>
</svg>