<svg xmlns="http://www.w3.org/2000/svg" viewBox="0 0 300 300" preserveAspectRatio="xMidYMid meet">
    <g transform="translate(0,300) scale(0.1,-0.1)" fill="currentColor">
        <path
            d="M1830 2497 c-82 -45 -220 -141 -225 -158 -12 -36 -48 -22 -82 31 -61
93 -141 106 -280 46 -111 -47 -179 -59 -261 -45 -97 17 -243 6 -324 -23 -151
-56 -269 -162 -339 -303 -52 -105 -73 -205 -65 -314 3 -46 7 -85 9 -88 3 -2
20 10 38 27 35 31 111 60 159 60 26 0 27 2 33 70 11 136 91 250 215 308 50 24
70 27 157 27 89 0 106 -3 155 -27 74 -36 144 -108 183 -188 29 -58 32 -74 32
-155 0 -80 -3 -97 -32 -157 -99 -209 -354 -279 -543 -150 -30 20 -69 57 -88
82 -38 50 -83 80 -123 80 -41 0 -92 -40 -108 -86 -13 -38 -13 -44 9 -90 52
-107 208 -226 349 -268 204 -60 428 -5 584 144 86 81 139 166 172 276 32 104
66 156 150 230 121 106 142 179 84 282 -17 30 -28 60 -25 67 2 7 19 16 37 20
17 4 69 31 115 61 46 30 87 54 91 54 5 0 42 -30 83 -67 l75 -66 5 -128 c3 -80
10 -133 17 -140 8 -8 9 -18 2 -31 -8 -14 -21 -18 -63 -18 -118 0 -174 -62
-202 -225 -19 -113 -47 -174 -111 -248 -61 -69 -117 -172 -138 -253 -19 -74
-19 -232 0 -304 27 -103 83 -200 159 -276 65 -64 150 -122 201 -138 20 -6 20
-2 17 62 -3 58 0 74 23 117 l27 50 -23 15 c-76 49 -137 124 -165 204 -23 62
-20 180 6 248 23 62 92 147 149 182 124 78 298 74 418 -7 96 -66 163 -193 163
-307 0 -194 -172 -370 -361 -370 -98 0 -158 -95 -114 -180 32 -62 113 -75 249
-40 230 58 403 238 451 465 39 186 -11 378 -138 527 -75 89 -96 134 -117 253
-19 109 -34 147 -72 182 -33 31 -71 43 -133 43 -57 0 -74 15 -55 50 6 10 10
81 10 157 0 133 -1 141 -25 173 -14 19 -25 39 -25 46 0 12 -175 179 -208 199
-9 5 -35 11 -57 12 -22 1 -53 5 -70 8 -17 3 -41 0 -55 -8z m40 -95 c0 -38 -2
-40 -82 -90 -46 -29 -90 -52 -100 -52 -17 0 -37 45 -25 56 11 11 192 124 200
124 4 0 7 -17 7 -38z m196 -44 c45 -40 83 -75 83 -78 1 -3 -13 -13 -30 -22
l-31 -18 -64 57 c-39 35 -62 63 -59 71 3 7 5 25 5 38 0 13 3 24 6 24 4 0 44
-33 90 -72z m-601 -218 c71 -27 51 -133 -25 -133 -39 0 -70 31 -70 72 0 14
-11 44 -25 66 -13 22 -25 43 -25 47 0 3 15 15 32 27 l33 20 28 -45 c15 -24 38
-49 52 -54z m741 -197 c-3 -7 -19 -13 -36 -13 l-30 0 0 113 0 112 33 15 32 15
3 -114 c1 -63 0 -121 -2 -128z m64 -263 c43 -43 11 -120 -49 -120 -16 0 -34 7
-41 15 -8 10 -31 15 -71 15 l-59 0 0 40 0 40 58 0 c34 1 65 6 76 15 27 21 62
19 86 -5z m-1720 -159 c20 -38 -16 -76 -57 -60 -23 8 -29 32 -17 63 9 23 61
21 74 -3z m1668 -973 c21 -21 14 -57 -13 -70 -22 -10 -29 -9 -47 10 -19 18
-20 25 -10 47 13 27 49 34 70 13z" />
    </g>
</svg>