<svg version="1.0" xmlns="http://www.w3.org/2000/svg" viewBox="0 0 900 900">
    <g transform="translate(0.000000,900.000000) scale(0.100000,-0.100000)"
        fill="currentColor" stroke="none">
        <path
            d="M2200 6999 c-54 -7 -175 -51 -254 -91 -138 -70 -329 -251 -441 -417
-96 -142 -133 -201 -213 -341 -112 -194 -182 -329 -256 -495 -31 -71 -64 -143
-71 -160 -20 -44 -62 -154 -79 -205 -8 -25 -27 -76 -41 -115 -15 -38 -37 -106
-50 -150 -13 -44 -36 -120 -50 -170 -15 -49 -35 -130 -45 -178 -10 -48 -23
-102 -29 -120 -6 -18 -20 -84 -31 -147 -18 -103 -31 -187 -71 -485 -16 -124
-6 -385 25 -625 27 -212 45 -300 82 -400 13 -36 24 -69 24 -73 0 -8 53 -118
87 -182 27 -50 119 -167 170 -216 155 -149 401 -257 703 -310 136 -23 591 -75
740 -84 58 -3 188 -14 290 -23 265 -24 1192 -24 1430 0 91 9 212 19 270 23 58
3 162 12 231 20 70 8 169 19 220 25 52 5 148 18 214 29 221 37 309 52 405 67
52 8 110 19 129 25 19 7 79 20 135 29 138 25 290 58 323 71 16 6 57 17 93 24
74 15 259 63 271 71 5 2 45 13 91 24 46 10 142 34 213 53 72 19 155 38 185 42
30 3 78 13 105 20 80 22 218 35 380 35 169 -1 277 -12 350 -37 38 -14 82 -18
185 -17 133 0 136 1 219 37 93 40 214 128 265 191 144 177 125 346 -59 526
-79 78 -135 169 -135 221 0 15 -9 55 -20 89 -11 34 -20 69 -20 77 0 39 -88
173 -151 231 -82 75 -189 103 -298 78 -91 -21 -132 -46 -254 -154 -56 -49
-113 -99 -127 -110 -66 -51 -175 -106 -275 -139 l-110 -36 -190 -1 c-177 0
-200 2 -345 33 -256 54 -311 69 -378 103 -104 53 -128 98 -187 348 -39 166
-46 192 -67 250 -11 30 -26 80 -33 110 -15 58 -44 136 -76 207 -10 23 -19 46
-19 51 0 5 -24 63 -54 128 -88 192 -215 417 -313 555 -32 44 -67 93 -78 109
-64 89 -336 391 -415 460 -35 30 -89 78 -119 105 -112 100 -191 160 -426 319
-74 51 -195 121 -300 176 -44 23 -87 48 -95 55 -8 6 -30 17 -49 24 -19 6 -42
17 -50 25 -9 7 -45 26 -81 41 -36 15 -109 47 -162 72 -54 24 -121 52 -150 62
-29 11 -95 35 -146 55 -51 20 -98 36 -105 36 -7 0 -28 8 -47 18 -19 11 -78 31
-130 46 -52 16 -133 39 -179 53 -46 13 -123 29 -170 34 -103 10 -314 10 -391
-2z m405 -422 c176 -58 380 -203 531 -377 116 -134 225 -303 283 -440 17 -41
40 -93 50 -115 18 -38 34 -88 95 -295 13 -47 28 -116 31 -155 4 -38 13 -106
21 -150 16 -90 18 -372 4 -450 -5 -27 -16 -98 -25 -158 -8 -59 -24 -134 -35
-167 -11 -33 -20 -67 -20 -77 -1 -10 -9 -36 -20 -58 -11 -22 -19 -48 -20 -59
0 -24 -90 -227 -158 -355 -212 -402 -568 -762 -947 -961 -148 -77 -344 -144
-484 -164 -308 -46 -525 12 -686 185 -153 164 -215 396 -215 803 0 208 22 537
45 656 7 41 17 102 20 135 6 58 19 112 84 365 37 143 68 237 165 495 65 173
238 521 330 665 23 36 48 76 54 90 7 14 24 41 37 60 14 19 62 89 107 155 90
130 192 244 270 302 27 19 88 51 136 69 122 46 208 47 347 1z m1905 -998 c121
-73 344 -274 449 -404 196 -242 321 -478 453 -850 27 -77 55 -165 62 -195 7
-30 18 -71 24 -90 24 -71 50 -193 45 -206 -8 -22 -47 -27 -167 -21 -155 7
-238 39 -321 122 -82 82 -104 143 -149 415 -36 218 -63 329 -110 455 -15 39
-33 88 -40 110 -24 70 -136 304 -239 495 -56 105 -87 168 -87 180 0 17 43 11
80 -11z m3308 -2012 c50 -47 64 -104 38 -155 -25 -49 -30 -116 -11 -156 29
-61 116 -143 166 -156 80 -22 100 -32 114 -60 10 -20 12 -36 5 -60 -16 -55
-39 -81 -98 -108 -52 -24 -68 -26 -182 -26 -90 1 -153 7 -225 23 -229 50 -469
50 -626 1 -61 -19 -70 -20 -101 -7 -50 21 -71 71 -72 171 -1 127 28 156 156
156 40 0 89 5 108 10 19 5 64 16 100 25 108 27 236 111 364 240 61 60 125 115
141 122 39 16 94 7 123 -20z" />
        <path
            d="M2441 6189 c-210 -37 -514 -369 -749 -819 -132 -251 -136 -262 -137
-327 0 -72 20 -107 78 -136 36 -18 40 -18 115 0 63 15 118 18 297 18 l220 0
55 -29 c74 -38 87 -51 124 -121 l31 -60 5 -265 c5 -264 5 -265 32 -321 55
-111 173 -172 407 -210 115 -18 197 -14 236 13 45 30 53 55 70 221 8 76 27
188 42 250 24 105 26 128 27 362 1 236 -1 257 -27 385 -29 143 -58 246 -88
320 -52 128 -83 198 -100 222 -11 14 -19 30 -19 35 0 12 -100 167 -147 228
-91 118 -181 195 -262 223 -48 17 -148 22 -210 11z" />
        <path
            d="M1884 4646 c-123 -45 -189 -132 -235 -311 -50 -189 -26 -360 61 -438
81 -74 256 -72 367 4 30 20 61 46 69 57 42 60 85 149 90 186 3 22 13 63 21 90
35 112 2 298 -65 370 -21 21 -51 45 -69 52 -50 22 -167 17 -239 -10z" />
        <path
            d="M1635 3631 c-55 -9 -110 -22 -121 -29 -38 -21 -78 -76 -129 -176 -45
-88 -50 -105 -50 -165 0 -124 86 -244 225 -315 64 -32 89 -39 165 -46 255 -21
531 55 774 211 110 72 261 207 282 254 24 51 24 72 0 111 -54 88 -165 123
-482 154 -260 25 -522 25 -664 1z" />
    </g>
</svg>