<svg xmlns="http://www.w3.org/2000/svg" viewBox="0 0 900 900">
    <g transform="translate(0.000000,900.000000) scale(0.100000,-0.100000)"
        fill="currentColor" stroke="none">
        <path
            d="M2921 6992 c-5 -10 -12 -58 -16 -108 -3 -49 -13 -136 -21 -194 -8
-58 -15 -123 -17 -145 -2 -44 14 -35 -168 -91 -72 -21 -109 -21 -121 1 -6 9
-63 88 -128 174 -65 87 -123 168 -129 180 -17 31 -45 26 -125 -22 -39 -24 -78
-46 -86 -50 -8 -5 -24 -13 -35 -20 -11 -7 -63 -37 -115 -67 -52 -30 -102 -59
-112 -65 -9 -5 -37 -21 -62 -34 -26 -14 -53 -33 -62 -43 -15 -16 -15 -21 -1
-50 8 -18 27 -60 42 -93 14 -33 37 -82 50 -110 12 -27 35 -79 50 -115 15 -36
31 -69 36 -74 19 -20 6 -39 -86 -131 -92 -92 -111 -105 -130 -86 -6 5 -55 28
-109 51 -54 23 -106 45 -115 50 -9 4 -32 15 -51 23 -19 9 -61 28 -93 42 -67
30 -76 27 -112 -42 -11 -21 -45 -81 -76 -133 -30 -52 -58 -102 -62 -110 -4 -8
-16 -28 -27 -45 -11 -16 -23 -37 -27 -45 -4 -8 -26 -47 -50 -86 -24 -39 -43
-80 -43 -91 0 -13 16 -31 42 -48 23 -15 47 -32 52 -37 6 -5 72 -53 146 -108
74 -55 141 -109 148 -119 13 -19 14 -15 -46 -211 -16 -52 -19 -55 -52 -57 -19
-2 -84 -9 -145 -17 -60 -8 -147 -18 -192 -21 -46 -3 -94 -10 -108 -15 l-25
-10 0 -329 c0 -316 1 -331 19 -341 11 -5 80 -14 153 -19 74 -6 141 -13 150
-16 8 -3 53 -9 99 -13 l84 -7 17 -55 c51 -166 57 -191 52 -205 -6 -14 -328
-260 -373 -284 -31 -17 -26 -45 22 -125 24 -39 46 -78 50 -86 4 -8 16 -28 27
-45 11 -16 23 -37 27 -45 7 -16 86 -154 103 -180 5 -8 19 -34 31 -58 13 -23
31 -49 41 -58 16 -15 21 -15 50 -1 18 8 60 27 93 42 33 15 74 33 90 40 17 8
50 23 75 33 25 11 70 32 101 46 31 14 59 26 63 26 13 0 196 -189 196 -203 0
-7 -4 -17 -9 -22 -5 -6 -28 -55 -51 -109 -23 -54 -46 -106 -50 -115 -5 -9 -21
-43 -35 -76 -15 -33 -34 -75 -42 -93 -14 -29 -14 -34 1 -50 9 -10 35 -28 58
-41 24 -12 50 -26 58 -31 8 -6 62 -37 120 -70 58 -33 112 -65 120 -70 8 -6 22
-13 30 -17 8 -4 47 -26 86 -50 80 -48 108 -53 125 -22 18 35 249 342 270 360
14 13 26 15 51 8 18 -4 53 -13 78 -20 25 -6 68 -19 95 -28 48 -16 50 -18 52
-56 2 -22 9 -87 17 -145 8 -58 17 -142 21 -187 3 -46 10 -94 15 -108 l10 -25
1029 0 1029 0 330 330 330 330 529 0 529 0 23 -40 c29 -52 70 -92 123 -120 61
-32 185 -32 246 0 50 26 106 88 133 147 54 118 -2 273 -125 343 -44 26 -61 30
-129 30 -115 0 -180 -39 -260 -154 l-18 -26 -552 0 c-304 0 -559 0 -567 0 -8
0 -163 -149 -345 -330 l-331 -330 -819 2 -820 3 0 170 0 170 612 5 612 5 334
333 333 332 1265 0 1265 0 38 -57 c43 -67 95 -108 163 -128 59 -18 93 -19 147
-3 205 59 273 307 126 458 -49 49 -136 90 -195 90 -87 0 -190 -60 -241 -141
l-24 -39 -1313 0 -1312 0 -330 -330 -330 -330 -577 0 -578 0 0 180 0 180 357
0 357 0 336 335 336 335 518 0 c316 0 524 -4 536 -10 10 -5 20 -20 24 -32 3
-13 22 -40 43 -62 127 -134 344 -108 440 52 25 42 28 56 28 137 -1 102 -18
147 -77 200 -65 59 -95 70 -194 70 -83 0 -94 -2 -134 -29 -49 -32 -110 -95
-110 -113 0 -31 -45 -33 -596 -33 l-558 0 -331 -330 -330 -330 -360 0 c-341 0
-467 7 -560 32 -22 6 -56 14 -75 19 -113 25 -281 111 -410 210 -388 297 -564
781 -458 1264 80 367 332 682 686 855 205 100 342 120 822 120 l355 0 330
-330 331 -330 560 0 c433 0 564 -3 576 -12 8 -7 25 -30 37 -50 12 -20 47 -54
79 -75 56 -37 59 -38 147 -38 98 0 128 11 193 70 59 53 76 98 77 200 0 81 -3
95 -28 137 -96 160 -306 185 -440 53 -20 -21 -40 -48 -43 -62 -4 -13 -14 -28
-24 -33 -12 -6 -220 -10 -536 -10 l-518 0 -336 335 -336 335 -357 0 -357 0 0
180 0 180 578 0 577 0 330 -330 330 -330 1312 0 1313 0 24 -39 c50 -78 156
-141 240 -141 60 0 147 41 196 90 148 151 79 398 -126 458 -113 33 -235 -16
-306 -123 -18 -27 -37 -53 -43 -57 -5 -4 -577 -8 -1269 -8 l-1260 0 -333 333
-334 332 -612 5 -612 5 0 170 0 170 820 3 820 2 331 -330 331 -330 566 0 566
0 18 -26 c80 -115 145 -154 260 -154 68 0 85 4 129 30 161 92 192 292 68 430
-56 62 -105 82 -199 82 -64 1 -89 -4 -123 -22 -53 -28 -94 -68 -123 -120 l-23
-40 -529 0 -529 0 -330 330 -330 330 -1029 0 c-982 0 -1029 -1 -1038 -18z
m4123 -673 c34 -41 33 -79 -3 -118 -60 -64 -156 -28 -156 59 0 56 35 90 91 90
35 0 47 -5 68 -31z m987 -530 c39 -41 38 -78 -2 -118 -61 -61 -154 -26 -154
59 0 85 97 122 156 59z m-2006 -544 c25 -21 30 -32 30 -69 0 -51 -22 -81 -65
-90 -41 -8 -83 10 -103 43 -25 43 -21 69 17 107 41 41 78 44 121 9z m4 -1368
c21 -18 33 -59 26 -94 -6 -35 -56 -73 -95 -73 -28 0 -90 61 -90 90 0 33 31 78
60 89 28 11 78 4 99 -12z m1961 -537 c4 0 22 -14 39 -32 40 -41 40 -76 2 -117
-69 -74 -187 -2 -152 92 12 30 69 70 89 62 8 -3 17 -5 22 -5z m-949 -561 c36
-39 37 -77 3 -118 -21 -26 -33 -31 -68 -31 -56 0 -91 34 -91 90 0 87 96 123
156 59z" />
        <path
            d="M3215 5173 c-103 -13 -218 -47 -276 -82 -19 -12 -45 -26 -58 -31 -31
-14 -173 -157 -194 -196 -49 -91 -79 -160 -88 -202 -22 -107 -28 -180 -19
-238 22 -137 32 -166 107 -309 9 -16 52 -66 97 -110 167 -164 397 -232 616
-181 81 18 138 39 181 65 19 12 43 25 54 30 37 17 140 118 180 177 57 83 105
189 105 228 0 13 8 33 18 45 l17 21 1575 0 c866 0 1580 0 1586 0 6 0 24 -19
39 -42 63 -95 124 -128 238 -128 72 0 88 4 133 30 87 50 144 142 144 235 0
102 -54 194 -144 245 -44 26 -61 30 -129 30 -118 0 -193 -43 -250 -143 l-21
-37 -1595 2 -1596 3 -12 55 c-21 97 -43 147 -107 243 -38 57 -144 161 -181
178 -11 5 -35 18 -54 30 -83 50 -275 93 -366 82z m153 -493 c20 -11 52 -42 72
-71 30 -45 34 -57 34 -118 0 -67 -19 -116 -62 -160 -74 -75 -233 -74 -307 3
-48 49 -59 78 -59 156 0 94 22 135 99 184 62 40 153 42 223 6z m4078 -115 c34
-23 49 -69 34 -105 -40 -96 -175 -73 -175 30 0 74 81 117 141 75z" />
    </g>
</svg>