<svg xmlns="http://www.w3.org/2000/svg" viewBox="0 0 900 900">
    <g transform="translate(0.000000,900.000000) scale(0.100000,-0.100000)"
        fill="currentColor" stroke="none">
        <path
            d="M706 8893 c-36 -38 -40 -83 -32 -357 15 -581 97 -1010 268 -1421 66
-156 120 -264 174 -346 24 -37 44 -69 44 -72 0 -15 151 -213 230 -301 49 -56
724 -735 1500 -1510 970 -970 1410 -1416 1410 -1430 0 -12 -29 -49 -69 -89
-107 -105 -104 -142 23 -265 46 -45 90 -82 97 -82 7 0 114 101 237 224 198
198 223 226 213 243 -5 11 -598 607 -1316 1324 -718 717 -1411 1410 -1539
1539 -278 279 -327 335 -439 497 -234 341 -384 703 -481 1168 -55 264 -60 364
-20 440 14 28 44 68 65 90 21 23 39 48 39 56 0 9 -30 45 -67 81 -38 36 -104
104 -149 152 -76 81 -84 86 -122 86 -32 0 -47 -6 -66 -27z" />
        <path
            d="M1241 8417 c-13 -6 -33 -24 -44 -39 -19 -26 -20 -33 -9 -115 13 -100
34 -215 52 -288 6 -27 19 -79 28 -115 22 -92 85 -284 116 -355 15 -33 39 -89
53 -125 14 -36 29 -70 34 -75 4 -6 25 -44 45 -85 39 -79 172 -284 233 -360 20
-25 80 -94 134 -153 140 -154 3065 -3077 3079 -3077 18 0 725 709 732 733 4
16 -49 74 -249 273 -139 140 -266 259 -281 264 -38 15 -46 12 -268 -85 -107
-47 -201 -85 -211 -85 -27 0 -16 37 79 245 47 104 86 201 86 215 0 14 -8 37
-17 50 -10 14 -177 185 -373 381 -246 247 -363 358 -381 361 -14 3 -52 -4 -84
-14 -67 -21 -83 -12 -59 33 8 16 14 52 14 81 l0 53 -727 728 c-537 536 -742
736 -783 759 -30 18 -80 48 -110 69 -30 20 -102 68 -160 106 -209 138 -381
261 -575 411 -66 51 -154 119 -195 151 -82 63 -122 78 -159 58z" />
        <path
            d="M6201 4553 c-28 -14 -1561 -1536 -1918 -1905 -117 -120 -123 -128
-123 -168 0 -32 6 -47 27 -66 38 -35 70 -40 112 -18 19 10 142 126 273 257
138 137 246 237 257 237 33 0 85 -22 156 -68 74 -47 274 -240 318 -307 14 -22
39 -58 55 -80 41 -58 61 -99 92 -195 99 -298 250 -528 437 -667 40 -29 74 -53
77 -53 2 0 40 -16 83 -36 43 -20 89 -41 103 -46 40 -15 212 -119 252 -152 20
-17 72 -60 117 -95 44 -36 123 -108 176 -161 l97 -97 17 -155 c16 -140 21
-161 55 -230 20 -41 45 -84 55 -94 60 -63 110 -98 178 -127 72 -29 88 -32 212
-35 103 -3 149 0 195 13 316 86 534 231 689 459 132 194 148 457 39 671 -62
123 -111 177 -732 805 -265 268 -1124 1140 -1380 1400 -143 146 -260 273 -260
282 0 9 100 117 222 240 225 227 258 266 258 306 0 25 -55 88 -85 96 -11 3
-35 -2 -54 -11z m-559 -1373 c27 -28 30 -36 25 -77 -6 -57 -35 -82 -93 -83
-86 0 -127 99 -65 161 41 41 91 40 133 -1z m656 -690 c62 -38 66 -111 8 -155
-46 -35 -81 -32 -122 9 -45 45 -45 82 0 130 38 41 66 45 114 16z m729 -724
c23 -20 28 -32 28 -71 0 -39 -5 -51 -28 -71 -70 -60 -188 10 -156 94 28 73
100 96 156 48z m660 -682 c48 -31 51 -91 7 -139 -34 -36 -105 -36 -139 1 -59
64 -3 174 79 159 17 -3 41 -12 53 -21z" />
    </g>
</svg>