<svg version="1.0" xmlns="http://www.w3.org/2000/svg"
    viewBox="0 0 900.000000 900.000000"
>
    <g transform="translate(0.000000,900.000000) scale(0.100000,-0.100000)"
        fill="currentColor" stroke="none">
        <path
            d="M660 8091 c-68 -14 -131 -67 -161 -139 -18 -42 -19 -99 -19 -1824 0
-1374 3 -1790 12 -1822 16 -54 93 -131 144 -145 26 -7 223 -11 575 -11 l536 0
134 64 c123 59 315 129 464 169 55 15 90 23 255 56 30 7 125 21 210 33 135 19
201 22 515 22 280 0 390 -4 495 -17 239 -30 456 -75 624 -128 101 -32 106 -25
51 74 -37 66 -68 172 -80 270 -7 52 -10 57 -31 57 -14 0 -40 -6 -58 -14 -29
-12 -34 -20 -41 -62 -14 -94 -70 -139 -163 -132 -48 4 -60 10 -88 41 -20 21
-35 51 -39 74 -12 69 -12 69 -125 99 -78 20 -245 105 -322 163 -101 77 -213
204 -293 333 -42 69 -117 228 -142 303 -71 214 -93 343 -93 557 0 307 65 562
208 820 116 208 299 387 498 486 75 38 171 72 201 72 32 0 63 34 63 70 0 42
33 103 67 126 19 12 46 18 86 18 56 1 61 -1 97 -40 30 -32 39 -52 45 -93 7
-54 25 -81 53 -81 57 -1 236 -81 341 -152 76 -53 244 -228 300 -313 168 -256
259 -555 268 -880 3 -132 1 -180 -16 -270 -11 -60 -17 -113 -12 -118 4 -4 34
4 66 18 139 62 327 120 510 159 309 66 577 90 914 83 381 -9 694 -48 936 -119
39 -11 87 -22 108 -25 l37 -5 0 1029 c0 1026 0 1028 -21 1068 -28 54 -56 83
-104 108 l-40 22 -3465 1 c-1906 1 -3481 -1 -3500 -5z m1068 -244 c8 -9 8 -39
2 -98 -26 -235 -133 -453 -304 -616 -158 -151 -333 -243 -533 -278 -121 -21
-160 -20 -173 4 -15 30 -14 973 2 989 18 18 991 17 1006 -1z m5820 1 c14 -14
17 -974 3 -997 -7 -11 -25 -13 -83 -7 -232 21 -451 124 -626 294 -153 148
-248 330 -287 547 -18 100 -19 162 -2 168 6 3 230 6 497 6 366 1 489 -2 498
-11z m-6668 -2458 c126 -18 294 -85 414 -165 66 -44 179 -154 237 -230 109
-143 176 -311 200 -498 16 -129 68 -117 -501 -117 -431 0 -490 2 -504 16 -14
14 -16 73 -16 498 0 361 3 485 12 494 14 14 69 15 158 2z" />
        <path
            d="M3990 7159 c-148 -26 -321 -136 -438 -275 -122 -147 -197 -313 -244
-539 -77 -372 52 -823 303 -1060 164 -154 325 -224 517 -225 158 0 353 65 386
129 30 56 139 193 204 254 151 142 152 143 201 287 55 164 72 441 37 610 -48
232 -105 362 -232 525 -72 93 -95 115 -195 182 -85 57 -180 99 -258 113 -63
12 -216 11 -281 -1z" />
        <path
            d="M6200 5760 c-384 -47 -691 -131 -955 -262 -385 -192 -594 -440 -598
-708 -2 -167 74 -322 229 -470 476 -453 1536 -652 2501 -470 303 58 620 177
848 318 164 102 321 271 380 407 124 289 -18 593 -386 828 -58 37 -252 139
-285 150 -10 4 -37 13 -59 22 -221 87 -478 147 -795 185 -219 26 -663 26 -880
0z" />
        <path
            d="M3030 4254 c-505 -39 -927 -161 -1253 -362 -201 -123 -345 -278 -408
-439 -34 -86 -39 -248 -10 -341 86 -275 406 -526 866 -677 233 -76 406 -113
715 -150 191 -23 639 -20 847 5 197 23 249 33 425 76 397 98 696 245 901 443
93 90 148 169 193 282 36 88 39 243 6 336 -66 190 -210 344 -451 487 -325 192
-777 314 -1285 346 -198 12 -334 11 -546 -6z" />
        <path
            d="M8563 4167 c-304 -268 -805 -474 -1353 -556 -265 -40 -789 -40 -1060
-1 -231 34 -274 42 -470 90 -78 19 -108 27 -227 62 -65 18 -65 14 -2 -92 60
-100 119 -314 119 -432 0 -19 6 -40 13 -46 16 -14 218 -65 357 -91 262 -49
349 -56 710 -56 355 0 389 3 675 51 235 40 533 133 715 224 166 82 341 206
432 305 71 77 143 206 164 294 24 99 10 267 -23 278 -7 3 -29 -11 -50 -30z" />
        <path
            d="M8550 3419 c-201 -179 -435 -310 -727 -408 -130 -43 -198 -62 -368
-101 -210 -48 -430 -65 -840 -65 -379 0 -488 8 -710 50 -101 20 -275 62 -326
80 -49 18 -61 13 -82 -31 -22 -44 -21 -52 3 -107 31 -69 59 -192 66 -290 8
-102 10 -105 114 -132 686 -178 1465 -161 2080 45 552 185 893 506 889 835 -1
80 -20 159 -39 162 -8 2 -35 -15 -60 -38z" />
        <path
            d="M8526 2651 c-270 -250 -749 -446 -1256 -515 -280 -38 -332 -41 -645
-41 -430 0 -653 27 -973 116 -128 36 -138 36 -157 -1 -20 -39 -19 -65 5 -115
32 -65 61 -192 67 -293 5 -72 10 -95 23 -102 43 -23 261 -75 440 -104 208 -34
256 -38 542 -43 314 -6 457 4 721 47 604 100 1082 348 1272 660 70 115 99 265
75 380 -19 92 -27 92 -114 11z" />
        <path
            d="M1354 2655 c-9 -22 -14 -70 -14 -134 0 -172 62 -305 210 -451 116
-114 296 -230 483 -309 283 -120 533 -180 948 -226 367 -41 888 -3 1264 91
175 44 448 150 566 219 33 19 62 35 64 35 2 0 41 26 87 57 102 71 242 210 287
286 64 109 84 180 84 297 -1 140 -24 192 -63 144 -22 -26 -190 -148 -270 -195
-355 -212 -722 -329 -1225 -390 -146 -18 -683 -19 -820 -1 -384 50 -675 111
-845 176 -161 62 -175 68 -295 128 -127 64 -256 152 -350 239 -40 38 -78 69
-84 69 -7 0 -19 -16 -27 -35z" />
        <path
            d="M5239 1904 c-43 -45 -195 -159 -274 -206 -265 -158 -570 -262 -977
-333 -132 -23 -325 -36 -603 -42 -474 -10 -828 38 -1201 162 -253 84 -595 267
-731 390 -96 86 -110 73 -112 -101 -1 -114 20 -190 81 -292 40 -67 161 -198
230 -249 201 -150 464 -270 748 -341 104 -27 150 -36 332 -72 215 -42 631 -59
893 -36 475 41 857 141 1170 306 95 50 114 62 205 131 230 174 333 343 333
549 1 107 -15 170 -42 170 -9 0 -33 -16 -52 -36z" />
    </g>
</svg>