<svg xmlns="http://www.w3.org/2000/svg" viewBox="0 0 900 900">
    <g transform="translate(0.000000,900.000000) scale(0.100000,-0.100000)"
        fill="currentColor" stroke="none">
        <path
            d="M8186 7573 c-89 -93 -136 -146 -153 -174 -9 -15 -28 -34 -43 -43 -26
-15 -278 -16 -3152 -16 l-3123 1 -25 20 c-21 18 -25 31 -30 110 -3 64 -9 92
-20 99 -21 13 -496 13 -521 0 -17 -9 -19 -22 -19 -98 0 -86 -1 -89 -30 -110
-26 -20 -42 -22 -140 -22 -92 0 -118 -3 -151 -21 -48 -24 -87 -61 -114 -109
-19 -34 -20 -53 -20 -706 l0 -672 37 -54 c52 -75 99 -97 236 -110 102 -9 151
-22 217 -56 144 -74 213 -239 186 -445 -12 -89 -19 -115 -60 -242 -66 -205
-234 -526 -430 -825 -30 -47 -61 -94 -68 -105 -14 -22 -13 -22 -55 -125 -28
-70 -36 -89 -72 -172 -8 -18 -35 -85 -61 -148 -26 -63 -53 -128 -60 -145 -8
-16 -35 -82 -60 -145 -26 -63 -54 -131 -62 -150 -21 -48 -35 -81 -73 -175 -34
-84 -50 -123 -74 -177 -39 -89 -31 -170 23 -226 32 -33 58 -44 196 -90 88 -29
176 -59 195 -66 58 -22 103 -37 135 -46 17 -5 46 -14 65 -21 19 -6 51 -17 70
-24 19 -7 51 -18 70 -24 19 -7 49 -17 65 -21 17 -5 156 -52 310 -105 154 -53
294 -100 310 -105 17 -4 46 -14 65 -21 19 -6 51 -17 70 -24 19 -7 51 -18 70
-24 19 -7 49 -17 65 -21 17 -5 57 -19 90 -30 33 -12 74 -26 90 -30 17 -5 62
-20 100 -34 100 -36 169 -35 223 4 42 30 69 71 83 125 4 17 18 57 29 90 12 33
26 74 30 90 5 17 45 136 90 265 45 129 85 249 90 265 4 17 18 57 30 90 11 33
25 74 30 90 9 34 28 87 43 125 5 14 13 39 18 55 6 26 31 101 69 210 6 17 35
102 65 190 30 88 59 174 64 190 33 91 64 184 71 210 4 17 14 46 21 65 6 19 17
51 24 70 7 19 18 51 24 70 7 19 17 49 21 65 5 17 38 116 75 220 36 105 70 204
74 220 5 17 19 57 31 90 11 33 25 74 30 90 4 17 14 46 21 65 6 19 17 51 24 70
7 19 18 51 24 70 7 19 16 49 21 65 11 39 29 91 46 133 8 18 14 40 14 50 0 24
34 73 62 88 18 11 246 13 1108 14 597 1 1105 5 1130 9 260 47 506 182 523 287
4 22 16 49 28 60 20 18 54 19 1048 25 564 3 1038 9 1052 13 37 11 96 62 125
107 l24 39 0 675 0 675 -25 40 c-13 21 -35 48 -47 60 -30 28 -92 60 -117 60
-11 0 -34 18 -53 42 -18 23 -42 52 -53 64 -11 12 -51 58 -90 102 -38 45 -75
81 -82 81 -6 1 -37 -25 -67 -56z m-6187 -499 c62 -52 62 -51 -273 -388 -324
-325 -338 -337 -391 -302 -20 13 -25 25 -25 58 0 41 3 45 291 332 280 280 330
326 356 326 6 0 25 -12 42 -26z m462 -3 c31 -32 35 -50 18 -84 -16 -31 -568
-585 -601 -603 -39 -20 -65 -17 -93 11 -51 50 -48 55 258 363 276 279 346 342
374 342 8 0 28 -13 44 -29z m460 0 c56 -56 58 -53 -275 -387 -259 -259 -310
-306 -340 -311 -29 -4 -39 -1 -60 22 -29 31 -31 46 -15 78 15 29 542 560 593
598 49 36 60 36 97 0z m458 3 c63 -52 63 -52 -272 -389 -324 -325 -338 -336
-392 -301 -20 13 -25 25 -25 57 0 41 4 46 291 333 279 279 330 326 356 326 6
0 25 -12 42 -26z m5021 -963 c33 -26 34 -86 1 -112 -23 -18 -123 -19 -3715
-19 -2030 0 -3700 3 -3712 6 -27 7 -57 59 -49 84 3 11 18 29 32 40 l26 20
3696 0 c3604 0 3697 -1 3721 -19z m-5772 -2854 c14 -29 9 -70 -18 -147 -7 -19
-18 -51 -25 -70 -7 -19 -18 -51 -24 -70 -7 -19 -17 -48 -21 -65 -5 -16 -19
-57 -30 -90 -12 -33 -26 -73 -30 -90 -5 -16 -32 -95 -60 -175 -28 -80 -54
-155 -57 -168 -9 -37 -85 -105 -139 -125 -59 -21 -86 -21 -145 -3 -24 7 -71
21 -104 31 -33 10 -78 23 -100 30 -22 6 -67 20 -100 30 -33 10 -87 26 -120 37
-92 30 -119 79 -70 132 27 29 56 33 112 13 80 -29 141 -47 157 -47 8 0 30 -6
48 -14 18 -8 60 -21 93 -30 33 -9 84 -24 112 -33 51 -16 54 -16 79 2 32 25 47
52 73 135 23 76 38 120 80 240 7 19 16 49 21 65 5 17 14 46 21 65 6 19 17 51
24 70 7 19 18 51 24 70 7 19 17 49 21 65 13 46 39 114 56 147 14 27 19 29 62
26 40 -3 49 -7 60 -31z" />
        <path
            d="M3770 5123 c-9 -7 -27 -45 -40 -85 -12 -40 -24 -80 -27 -88 -55 -152
-106 -301 -113 -325 -10 -37 -28 -88 -47 -136 -8 -20 -13 -47 -11 -60 l3 -24
688 -3 c659 -2 689 -1 725 17 53 27 86 63 116 127 26 54 26 55 26 314 0 146
-4 261 -9 264 -5 4 -298 7 -652 9 -489 1 -646 -1 -659 -10z" />
        <path
            d="M316 2327 c-9 -7 -23 -40 -32 -75 -14 -53 -14 -71 -4 -110 24 -88 87
-157 160 -175 14 -3 131 -42 260 -87 129 -45 249 -85 265 -89 17 -5 41 -13 55
-18 38 -15 92 -34 125 -43 17 -5 136 -45 265 -90 129 -45 249 -85 265 -90 38
-11 89 -29 140 -49 25 -10 69 -16 121 -16 72 0 86 3 123 28 76 51 141 198 94
213 -10 3 -34 11 -53 18 -70 26 -106 38 -135 46 -16 5 -46 14 -65 21 -19 6
-51 17 -70 24 -19 7 -51 18 -70 24 -19 7 -48 17 -65 21 -16 5 -136 45 -265 90
-129 45 -248 85 -265 90 -40 11 -93 30 -133 46 -18 8 -39 14 -47 14 -8 0 -29
6 -47 14 -40 16 -93 35 -133 46 -16 5 -57 19 -90 30 -33 12 -73 26 -90 30 -16
5 -70 23 -120 41 -158 55 -172 59 -189 46z" />
    </g>
</svg>