<svg version="1.0" xmlns="http://www.w3.org/2000/svg" viewBox="0 0 900.000000 900.000000">
  <g transform="translate(0.000000,900.000000) scale(0.100000,-0.100000)" fill="currentColor"
    stroke="none">
    <path
      d="M 1725 7971 C 1482 7939 1259 7770 1149 7535 C 1075 7377 1055 7215 1092 7061 C 1138 6865 1227 6723 1380 6605 C 1431 6566 1475.242 6533.671 1639 6470 C 1741.451 6430.166 2475 6149 2535 6125 C 2734 6046 2792 6029 2877 6023 C 3011 6014 3147 6055 3256 6137 C 3322 6186 3390 6266 3419 6327 C 3431 6353 3446 6383 3451 6393 C 3461 6412 3476 6484 3487 6568 C 3494 6617 3478 6709 3447 6795 C 3390 6959 3265 7077 3075 7145 C 3048 7155 2086 7527 2075 7533 C 2037 7553 1916 7554 1858 7534 C 1739 7493 1642 7402 1603 7295 C 1591 7261 1585 7218 1586 7160 C 1586 7084 1590 7068 1620 7007 C 1660 6926 1744 6844 1817 6817 C 1843 6806 2603.503 6514.859 2677 6486 C 2727.525 6466.161 2784 6440 2832 6440 C 2877 6440 2886 6444 2916 6476 C 2936 6496 2950 6523 2951 6538 C 2955 6633 2942 6645 2750 6721 C 2720 6733 2088 6976 2055 6989 C 1878 7057 1858 7069 1839 7127 C 1816 7197 1851 7266 1922 7291 C 1961 7304 1995 7299 2083 7265 C 2103 7257 2973.387 6921.93 2978 6920 C 3016.831 6903.754 3115 6852 3150 6813 C 3215 6739 3232 6692 3233 6592 C 3233 6513 3230 6500 3201 6447 C 3150 6353 3094 6309 2987 6279 C 2936 6264 2921 6264 2857 6276 C 2817 6284 2776 6294 2765 6299 C 2746 6309 1784 6681 1746 6695 C 1599 6750 1548 6780 1475 6854 C 1409 6922 1395.986 6938.563 1355 7035 C 1315.352 7128.288 1324 7254 1338 7325 C 1365 7454 1434 7557 1552 7643 C 1683 7739 1894 7759 2055 7690 C 2075 7681 2797 7402 2824 7391 C 2917 7351 2988 7369 3024 7442 C 3044 7480 3044 7503 3026 7538 C 3004 7581 2981 7596 2880 7635 C 2754 7683 2164 7913 2150 7918 C 2037 7965 1854 7988 1725 7971 Z" />
    <path
      d="M 6171 7971 C 6158 7968 6134 7949 6119 7930 C 6092 7895 6091 7892 6081 7692 C 6075 7581 6068 7485 6064 7479 C 6061 7473 4733 6980 4728 6980 C 4704 6980 4650 6946 4634 6922 C 4624 6907 4613 6864 4609 6825 C 4590 6641 4578 6539 4567 6475 C 4543 6326 4555 6197 4600 6118 C 4606 6108 5397 3927 5439 3807 C 5454 3764 5472 3725 5480 3720 C 5488 3715 5520 3722 5559 3737 C 5595 3751 8288 4730 8305 4734 C 8360 4748 8374 4777 8348 4823 C 8334 4848 7542 7024 7529 7060 C 7501 7143 7488 7157 7458 7143 C 7445 7136 5191 6320 5156 6320 C 5109 6320 5100 6324 5067 6357 C 5034 6389 5030 6399 5030 6445 C 5030 6523 5080 6574 5177 6595 C 5195 6598 7304 7370 7315 7372 C 7344 7377 7346 7409 7317 7434 C 7304 7445 7230 7514 7154 7587 C 7078 7659 7003 7728 6988 7739 C 6957 7764 6875 7768 6827 7746 C 6809 7738 6373 7581 6348 7580 C 6322 7580 6320 7583 6320 7620 C 6320 7643 6325 7704 6331 7758 C 6343 7865 6334 7914 6296 7949 C 6272 7970 6208 7982 6171 7971 Z" />
    <path
      d="M 3125 5920 C 2985 5906 2877 5889 2860 5880 C 2620.729 5839.498 2314.429 5677.384 2111 5490 C 1979.604 5368.967 1830 5180 1746 5005 C 1719 4950 1693 4897 1689 4888 C 1669 4848 1618 4677 1599 4587 L 1587 4529 C 1587 4529 2078 4089 2083 4097 C 2086 4102 2084 4139 2080 4180 C 2069 4272 2084 4476 2107 4545 C 2145 4663 2154 4688 2176 4737 C 2223 4839 2271 4870 2356 4854 C 2427 4841 2470 4743 2436 4673 C 2346 4492 2316 4273 2355 4082 C 2374 3989 2370 3962 2333 3913 C 2311 3884 2309 3877 2321 3866 C 2358 3832 2938.067 3323.804 2962.442 3302.632 C 2980.668 3317.045 3010 3350 3036 3361 C 3075 3379 3088 3380 3131 3371 C 3159 3365 3203 3360 3230 3360 C 3291 3360 3541.457 3362.95 3730.785 3485.438 C 3825.3 3546.586 3967.138 3686.173 4024.138 3802.173 C 4110.138 3980.173 4123 4087 4126 4277 C 4128 4416 4130 4431 4150 4458 C 4194 4517 4297 4522 4348 4467 C 4414 4395 4395.049 4050.436 4328.56 3843.58 C 4309.029 3782.818 4248.449 3598.307 4058.458 3409.426 C 3979.221 3330.651 3856.012 3251.986 3769.012 3209.986 C 3730.012 3189.986 3619 3165 3603 3158 C 3529 3127 3378 3101 3268 3101 C 3230 3100 3200 3096 3200 3091 C 3200 3086 3587 2734 3614 2708 C 3642 2680 3672 2660 3685 2660 C 3725 2660 3906 2732 4032 2798 C 4276 2927 4499 3138 4650 3385 C 4703 3471 4781 3636 4805 3710 C 4815 3740 4854.959 3854.289 4864 3928 C 4893.648 4169.71 4907 4482 4819 4760 C 4789 4855 4784 4869 4736 4970 C 4682 5086 4587 5237 4521 5315 C 4455 5392 4296 5543 4229 5592 C 4158 5644 4013 5733 3960 5757 C 3778 5841 3645 5879 3435 5909 C 3335 5924 3206 5928 3125 5920 Z M 3429 5404 C 3476 5395 3524 5384 3535 5379 C 3546 5375 3566 5368 3580 5365 C 3696 5336 3884 5231 3985 5137 C 4044 5083 4044 5082 4044 5026 C 4044 4960 4021 4922 3967 4901 C 3915 4882 3868 4894 3807 4943 C 3697 5032 3578 5094 3465 5121 C 3352 5149 3317 5152 3190 5147 C 3050 5141 3044 5140 2893 5082 C 2777 5038 2732 5041 2683 5094 C 2656 5123 2650 5138 2650 5176 C 2650 5252 2668 5274 2770 5322 C 2954 5409 3223 5443 3429 5404 Z" />
    <path
      d="M 8350 4473 C 8331 4465 5714 3508 5677 3498 C 5627 3484 5620 3464 5654 3435 C 5670 3422 6000 3107 6063 3113 C 6107 3117 8227 3885 8242 3890 C 8318 3913 8360 3970 8360 4047 C 8360 4073 8385 4236 8391 4303 C 8410 4506 8412 4500 8350 4473 Z" />
    <path
      d="M 1150 4337 C 1059 4311 1009 4277 921 4181 C 874 4130 238 3411 222 3383 C 161 3273 167 3109 235 3000 C 264 2955 287 2931 385 2845 C 429 2807 2161 1252 2180 1234 C 2293 1130 2410 1088 2526 1109 C 2650 1132 2697 1167 2866 1355 C 3005 1510 3396 1945 3422 1974 C 3500 2059 3528.086 2135.141 3528 2233 C 3527.911 2334.896 3502 2456 3300 2635 C 3196 2728 1450 4291 1414 4309 C 1337 4347 1225 4359 1150 4337 Z" />
    <path
      d="M 7350 3222 C 7060 2925 7050 2912 7050 2849 C 7050 2813 7056 2802 7110 2746 C 7143 2711 7177.819 2664.925 7177.819 2659.925 C 7177.819 2654.925 6951 2426 6954 2421 C 6960 2412 7615 2040 7621 2040 C 7627 2040 7730.181 2142.332 7742.026 2160.774 C 7867.964 2063.678 7834.011 2080.385 7924 2030 C 7981 2030 7975 2025 8232 2300 C 8400 2481 8408.862 2482.504 8408.862 2540.504 L 8390 2574 C 8390 2574 7845.321 3060.287 7531.797 3337.404 C 7486.797 3337.404 7474 3349 7350 3222 Z" />
    <path
      d="M 5120 3075 C 5106 3067 4308 2607 4300 2603 C 4255 2583 4207 2545 4190 2517 C 4154 2459 4164 2428 4269 2257 C 4291 2220 4453 1939 4456 1932 C 4466 1912 4516 1890 4550 1890 C 4580 1890 4677.802 1942 4735.903 1974.46 C 4759.346 1939.605 4835 1792 4866 1732 C 4881 1703 4899 1681 4906 1682 C 4913 1684 5448 2199 5455 2210 C 5458 2216 5447 2249 5428 2285 L 5395 2350 C 5395 2350 5474 2403 5506 2421 C 5532 2434 5570 2499 5570 2530 C 5570 2549 5287 3045 5275 3056 C 5240 3092 5165 3101 5120 3075 Z" />
    <path
      d="M 6760 2210 C 6750 2210 6600 2060 6600 2053 C 6600 2043 7266.255 1671.267 7273.255 1663.267 C 7324.33 1711.836 7433.487 1830.989 7435.487 1834.989 C 7438.487 1842.989 6771 2210 6760 2210 Z" />
    <path
      d="M 5604 1967 C 5599 1969 5050 1437 5050 1426 C 5050 1420 5159.372 1215.993 5159.372 1215.993 C 5159.372 1215.993 5706 1755 5714 1768 C 5718 1775 5609 1965 5604 1967 Z" />
    <path
      d="M 6353 1792 C 6290 1697 6272.519 1621.242 6274.777 1547.555 C 6277.583 1456 6296 1421 6353 1345 C 6386 1301 6472.928 1196.82 6684 1192 C 6797.253 1189.414 6865 1237 6979 1353 C 7073 1450 7083 1472 7043 1487 C 7033 1491 6412 1840 6403 1840 C 6393 1840 6371 1819 6353 1792 Z" />
    <path
      d="M 5862.628 1527.504 C 5856.628 1527.504 5300 986 5304 972 C 5313 944 5411 846 5450 826 C 5605 748 5776 766 5891 872 C 5983 957 6025 1058 6018 1179 C 6015 1221 5983 1315 5971 1340 C 5949 1385 5910 1456 5884 1498 C 5876 1510 5869.628 1527.504 5862.628 1527.504 Z" />
  </g>
</svg>