<svg xmlns="http://www.w3.org/2000/svg" width="981.3333333" height="981.3333333" version="1.0" viewBox="0 0 736 736"><path d="M126 233.9c0 .4 6.9 12.7 15.3 27.2 12.2 21.2 15.8 26.7 18.3 27.9 1.7.8 31 17.6 65.1 37.4 44.3 25.6 62.4 36.6 63.5 38.5.8 1.4 13.6 23.5 28.3 49.1 14.8 25.6 31.3 54.1 36.6 63.5 5.4 9.3 11 19 12.4 21.4l2.6 4.3 11.7-20.4c6.4-11.2 24.8-43 40.7-70.6l29-50.3 5.5-3.1c5-2.8 26.8-15.4 95.8-55.2 13.9-8 25.7-14.6 26.1-14.6 1.6 0 4.1-4 17.6-27.5 7.6-13.2 14.5-25.1 15.4-26.4l1.5-2.4-3 1.6c-1.6.8-13.3 7.5-26 14.9-12.6 7.3-52.9 30.6-89.5 51.7l-66.5 38.4-13.5 23.6c-7.5 13-20.6 35.6-29 50.3-8.5 14.7-15.6 26.8-15.9 26.8-.3 0-6.3-10.2-13.5-22.7-7.1-12.4-16.8-29.2-21.5-37.3-4.7-8.1-11.9-20.6-16-27.7l-7.5-13-39.5-22.9c-21.7-12.5-60.9-35.1-87-50.2-26.1-15.1-49.6-28.7-52.2-30.3-2.7-1.6-4.8-2.5-4.8-2z"/><path d="m358.8 259.3-8.6 17.3-16.8 2.4c-9.3 1.3-17.9 2.6-19.2 2.9-2 .6-.7 2.1 11.6 14.4l13.8 13.8-3.2 18.7c-1.8 10.3-3.1 18.9-2.9 19.1.2.1 8.1-3.7 17.4-8.5l17.1-8.9 17.1 8.9c9.3 4.8 17.2 8.6 17.4 8.5.2-.2-1.1-8.8-2.9-19.1l-3.2-18.7 13.8-13.8c12.3-12.3 13.6-13.8 11.6-14.4-1.3-.3-9.9-1.6-19.1-2.9l-16.9-2.4-8.6-17.3c-4.8-9.5-8.9-17.3-9.2-17.3-.3 0-4.4 7.8-9.2 17.3zM163.2 298.8c.1.5 7.1 12.6 15.3 26.9l15 26.1 52.4 30.3c59.7 34.6 66.1 38.2 66.1 37.4 0-.8-26.7-47.1-29.1-50.6-1-1.5-5.4-4.7-9.6-7.1-11.9-6.7-92.7-53.4-102.1-59-4.6-2.7-8.2-4.5-8-4zM514.1 332.1c-32.1 18.5-58.9 34.3-59.7 35.1-1.8 1.8-30.6 51.9-30.1 52.4.2.2 18.3-10 40.3-22.7 21.9-12.7 47.8-27.6 57.4-33.2 9.6-5.5 18.3-10.7 19.2-11.5 1-.8 4.8-6.7 8.5-13.1 3.6-6.4 10.4-18.1 15-26 4.6-7.9 8.3-14.4 8.1-14.6-.2-.1-26.6 15-58.7 33.6zM201 364.4c0 .2 6.9 12.2 15.3 26.7l15.3 26.3 46.4 26.8c25.6 14.8 52 30 58.8 33.9 6.8 3.9 12.5 6.9 12.7 6.7.2-.2-6.5-12.2-14.8-26.6l-15.3-26.3-17.4-10.1c-9.6-5.5-36.1-20.8-58.8-33.9-22.8-13.2-41.6-23.9-41.8-23.9-.2 0-.4.2-.4.4zM522.5 370.6c-6 3.6-32.4 18.9-58.5 34L416.5 432l-12 20.7c-16.1 27.8-18.6 32.3-17.9 32.3.6 0 8.3-4.4 73.9-42.3l43.9-25.4 11.8-20.2c16.3-28 19.1-33.1 18.1-33-.4 0-5.7 3-11.8 6.5z"/></svg>