<?xml version="1.0" encoding="UTF-8"?>
<svg xmlns="http://www.w3.org/2000/svg" xmlns:xlink="http://www.w3.org/1999/xlink" width="100px"
    height="100px" viewBox="0 0 100 100" version="1.1">
    <g id="surface1">
        <path style=" stroke:none;fill-rule:nonzero;fill:rgb(0%,0%,0%);fill-opacity:1;"
            d="M 17.125 31.789062 C 17.125 31.84375 18.0625 33.515625 19.203125 35.488281 C 20.863281 38.367188 21.351562 39.117188 21.691406 39.28125 C 21.921875 39.386719 25.90625 41.671875 30.539062 44.363281 C 36.5625 47.84375 39.019531 49.335938 39.171875 49.59375 C 39.28125 49.785156 41.019531 52.789062 43.015625 56.269531 C 45.027344 59.75 47.273438 63.621094 47.992188 64.898438 C 48.726562 66.164062 49.488281 67.480469 49.675781 67.808594 L 50.03125 68.394531 L 51.621094 65.621094 C 52.492188 64.097656 54.992188 59.777344 57.152344 56.023438 L 61.09375 49.1875 L 61.839844 48.765625 C 62.519531 48.386719 65.484375 46.671875 74.863281 41.265625 C 76.75 40.175781 78.355469 39.28125 78.410156 39.28125 C 78.628906 39.28125 78.96875 38.734375 80.800781 35.542969 C 81.835938 33.746094 82.773438 32.128906 82.894531 31.953125 L 83.097656 31.628906 L 82.691406 31.84375 C 82.472656 31.953125 80.882812 32.863281 79.15625 33.871094 C 77.445312 34.863281 71.96875 38.027344 66.992188 40.898438 L 57.953125 46.117188 L 56.121094 49.324219 C 55.101562 51.089844 53.320312 54.164062 52.179688 56.160156 C 51.023438 58.160156 50.058594 59.804688 50.015625 59.804688 C 49.976562 59.804688 49.160156 58.417969 48.183594 56.71875 C 47.21875 55.03125 45.898438 52.75 45.261719 51.648438 C 44.621094 50.546875 43.640625 48.847656 43.085938 47.882812 L 42.066406 46.117188 L 36.695312 43.003906 C 33.746094 41.304688 28.421875 38.234375 24.871094 36.179688 C 21.324219 34.128906 18.132812 32.28125 17.777344 32.0625 C 17.410156 31.84375 17.125 31.722656 17.125 31.789062 Z M 17.125 31.789062 " />
        <path style=" stroke:none;fill-rule:nonzero;fill:rgb(0%,0%,0%);fill-opacity:1;"
            d="M 48.765625 35.242188 L 47.597656 37.59375 L 45.3125 37.921875 C 44.050781 38.097656 42.882812 38.273438 42.703125 38.316406 C 42.433594 38.394531 42.609375 38.601562 44.28125 40.273438 L 46.15625 42.148438 L 45.722656 44.6875 C 45.476562 46.089844 45.300781 47.257812 45.328125 47.285156 C 45.355469 47.296875 46.429688 46.78125 47.691406 46.128906 L 50.015625 44.921875 L 52.339844 46.128906 C 53.605469 46.78125 54.679688 47.296875 54.707031 47.285156 C 54.734375 47.257812 54.554688 46.089844 54.3125 44.6875 L 53.878906 42.148438 L 55.753906 40.273438 C 57.425781 38.601562 57.601562 38.394531 57.328125 38.316406 C 57.152344 38.273438 55.984375 38.097656 54.734375 37.921875 L 52.4375 37.59375 L 51.265625 35.242188 C 50.613281 33.953125 50.058594 32.890625 50.015625 32.890625 C 49.976562 32.890625 49.417969 33.953125 48.765625 35.242188 Z M 22.179688 40.613281 C 22.195312 40.679688 23.144531 42.324219 24.261719 44.269531 L 26.300781 47.816406 L 33.421875 51.933594 C 41.535156 56.636719 42.40625 57.125 42.40625 57.015625 C 42.40625 56.90625 38.777344 50.613281 38.449219 50.140625 C 38.316406 49.933594 37.714844 49.5 37.144531 49.175781 C 35.527344 48.265625 24.546875 41.917969 23.269531 41.15625 C 22.644531 40.789062 22.152344 40.542969 22.179688 40.613281 Z M 69.875 45.136719 C 65.511719 47.652344 61.867188 49.800781 61.761719 49.910156 C 61.515625 50.152344 57.601562 56.960938 57.667969 57.03125 C 57.695312 57.058594 60.15625 55.671875 63.144531 53.945312 C 66.121094 52.21875 69.644531 50.195312 70.949219 49.433594 C 72.253906 48.683594 73.433594 47.976562 73.558594 47.871094 C 73.695312 47.761719 74.210938 46.957031 74.710938 46.089844 C 75.203125 45.21875 76.125 43.628906 76.75 42.554688 C 77.375 41.480469 77.878906 40.597656 77.851562 40.570312 C 77.824219 40.558594 74.238281 42.609375 69.875 45.136719 Z M 27.320312 49.527344 C 27.320312 49.554688 28.257812 51.1875 29.398438 53.15625 L 31.476562 56.730469 L 37.785156 60.375 C 41.265625 62.386719 44.851562 64.453125 45.777344 64.980469 C 46.699219 65.511719 47.476562 65.917969 47.503906 65.890625 C 47.53125 65.863281 46.617188 64.234375 45.492188 62.277344 L 43.410156 58.703125 L 41.046875 57.328125 C 39.742188 56.582031 36.140625 54.503906 33.054688 52.722656 C 29.957031 50.925781 27.402344 49.472656 27.375 49.472656 C 27.347656 49.472656 27.320312 49.5 27.320312 49.527344 Z M 71.015625 50.371094 C 70.199219 50.859375 66.613281 52.9375 63.066406 54.992188 L 56.609375 58.714844 L 54.976562 61.527344 C 52.789062 65.308594 52.449219 65.917969 52.546875 65.917969 C 52.625 65.917969 53.671875 65.320312 62.589844 60.167969 L 68.554688 56.71875 L 70.160156 53.972656 C 72.375 50.167969 72.753906 49.472656 72.621094 49.488281 C 72.566406 49.488281 71.84375 49.894531 71.015625 50.371094 Z M 71.015625 50.371094 " />
    </g>
</svg>